inDegrees=no
num_controls=7
num_derivatives=13
num_iterations=113
num_multipliers=7
num_parameters=0
num_slacks=7
num_states=26
objective=0.453822
objective_accelerations=0.044608
objective_balance=0.000819
objective_effort=0.036713
objective_height=0.365580
objective_ligament=0.006104
solver_duration=1284.874481
status=Solve_Succeeded
success=true
DataType=double
version=3
OpenSimVersion=4.5
endheader
time	/jointset/ground_pelvis/pelvis_tilt/value	/jointset/ground_pelvis/pelvis_tx/value	/jointset/ground_pelvis/pelvis_ty/value	/jointset/hip_r/hip_flexion_r/value	/jointset/hip_r/hip_adduction_r/value	/jointset/hip_r/hip_rotation_r/value	/jointset/back/lumbar_extension/value	/jointset/patellofemoral_r/patellar_flexion_r/value	/jointset/knee_r/knee_flexion_r/value	/jointset/knee_r/knee_adduction_r/value	/jointset/knee_r/knee_rotation_r/value	/jointset/ankle_r/ankle_angle_r/value	/jointset/subtalar_r/subtalar_angle_r/value	/jointset/ground_pelvis/pelvis_tilt/speed	/jointset/ground_pelvis/pelvis_tx/speed	/jointset/ground_pelvis/pelvis_ty/speed	/jointset/hip_r/hip_flexion_r/speed	/jointset/hip_r/hip_adduction_r/speed	/jointset/hip_r/hip_rotation_r/speed	/jointset/back/lumbar_extension/speed	/jointset/patellofemoral_r/patellar_flexion_r/speed	/jointset/knee_r/knee_flexion_r/speed	/jointset/knee_r/knee_adduction_r/speed	/jointset/knee_r/knee_rotation_r/speed	/jointset/ankle_r/ankle_angle_r/speed	/jointset/subtalar_r/subtalar_angle_r/speed	/forceset/tau_hip_flexion_r	/forceset/tau_hip_adduction_r	/forceset/tau_hip_rotation_r	/forceset/tau_knee_flexion_r	/forceset/tau_ankle_angle_r	/forceset/tau_subtalar_angle_r	/forceset/tau_lumbar_extension	lambda_cid13_p0	lambda_cid14_p0	lambda_cid14_p1	lambda_cid14_p2	lambda_cid14_p3	lambda_cid14_p4	lambda_cid14_p5	/jointset/ground_pelvis/pelvis_tilt/accel	/jointset/ground_pelvis/pelvis_tx/accel	/jointset/ground_pelvis/pelvis_ty/accel	/jointset/hip_r/hip_flexion_r/accel	/jointset/hip_r/hip_adduction_r/accel	/jointset/hip_r/hip_rotation_r/accel	/jointset/back/lumbar_extension/accel	/jointset/patellofemoral_r/patellar_flexion_r/accel	/jointset/knee_r/knee_flexion_r/accel	/jointset/knee_r/knee_adduction_r/accel	/jointset/knee_r/knee_rotation_r/accel	/jointset/ankle_r/ankle_angle_r/accel	/jointset/subtalar_r/subtalar_angle_r/accel	gamma_cid13_p0	gamma_cid14_p0	gamma_cid14_p1	gamma_cid14_p2	gamma_cid14_p3	gamma_cid14_p4	gamma_cid14_p5
1	-0.2094394692471359	-0.003646990293013682	0.6538020244944901	1.354965100728268	-0.2539463610356659	0.09956635420249538	-0.7853981283226515	1.482736712754176	1.48273671275411	0.04818981421463168	0.1745316502146519	0.4362598682533042	0.1416566611192753	0.07205425910445287	0.005317873828341826	0.01489711966811002	-0.1021767838453324	-0.001779166917959022	-0.006716131548249324	-0.0001130552857071503	-0.01687221297684182	-0.01687221297684146	0.0002141752162070618	-9.821838881023314e-06	0.01305461730822433	0.002787222923634423	-0.3163513007270229	0.01885657825342024	0.05106281126307535	-0.4667220232549363	-0.02298224124889802	-0.01601418306205962	0.347107173556453	-0.0404047077781679	-59.70841479805674	-20.16178139114679	6.780073882723475	7.801736053267873	-761.6719412267146	70.69679234230978	1.259078098998795	0.1504488584520617	1.688858508522826	-5.136486308166996	-0.08651173001570675	-1.539796859208623	-0.0268743799875711	-4.812904742611561	-4.812904742611388	0.07265389726432432	0.004010963436842791	-1.167834868466244	-0.6584866424570419	2.50834412674427e-10	-1.866853760423751e-09	-5.137255529075243e-09	1.395935622385542e-09	3.754026557142535e-09	-5.808092573890019e-09	-1.124271458736217e-08
1.01	-0.2086570834272887	-0.00358612813881206	0.654035296852311	1.353687598771367	-0.2539683715563227	0.09942214306992056	-0.78539800038413	1.48232750413995	1.482327504139902	0.04819531155536	0.1745315130662592	0.436332254196608	0.1416519100461221	0.0843779928795941	0.006873714121618622	0.03175635239442762	-0.1533058046751282	-0.002623710889874344	-0.0221233878535151	0.0003226882304309225	-0.06497621503777547	-0.06497621503777322	0.0008905788856275445	-1.697656769189792e-05	0.001443393705076826	-0.003729122617483404	-0.31710588979954	0.01894227375103743	0.05106081734210891	-0.4667318015748231	-0.023257284018615	-0.01598159976014181	0.3481656612940507	-0.0404031496713576	-59.8308622259816	-20.16717509536307	6.778769089388237	7.613222429585735	-762.3964710513411	70.70191020241533	1.212284377232458	0.1610268138041288	1.684303710146905	-5.098439675311733	-0.08354142978257856	-1.540785029145824	0.1064055032915417	-4.810153658275357	-4.810153658275182	0.06592732163551877	-0.0029851847905061	-1.154643233909538	-0.6469621202048041	-2.694986928573479e-10	-4.175034370968205e-09	-3.628231347656426e-09	-3.125301016710778e-09	8.118876378644759e-09	-1.005358604008349e-08	-1.406045631499403e-08
1.02	-0.207752807597598	-0.003509132541869942	0.6544371311484871	1.351899340665183	-0.2539988506564995	0.09912394037170116	-0.7853879936532623	1.481437054361025	1.481437054360997	0.04820773167675337	0.1745313230718282	0.4362891524783464	0.1415822447955045	0.09643226107316225	0.008544562376441094	0.0486095073391722	-0.2043280137019586	-0.003472882821915056	-0.03751444467719172	0.001862703181650599	-0.113120445916353	-0.1131204459163498	0.001598731349232376	-2.039104652093257e-05	-0.01004291500489212	-0.01019561256922729	-0.3178604788720569	0.0190279692486548	0.05105882342114261	-0.4667415798947099	-0.02353232678833197	-0.01594901645822363	0.3492241490316486	-0.0404071141666093	-59.96088213762305	-20.17134999001073	6.774363574484909	7.432079859341232	-763.260238966187	70.7052843380476	1.205184982684175	0.173450450761197	1.687642952208224	-5.115123947573915	-0.08743732204078518	-1.53655696289079	0.1939799070287334	-4.820950506140345	-4.820950506140356	0.07900365610119404	0.004759013433211233	-1.142851889830532	-0.6485155245822538	-9.738731500109701e-10	-4.355361847891969e-09	-5.716698800189059e-10	-8.362568707514446e-09	7.571350697317534e-09	-1.288326564508875e-08	-1.483564951993947e-08
1.03	-0.2067292956454587	-0.003414904526947485	0.6550074022412062	1.349601551960979	-0.2540378065894623	0.0986719659071234	-0.7853571320318191	1.480064990055944	1.480064990055844	0.04822739094253195	0.1745311120319422	0.4361316442251905	0.1414481782040811	0.1082277661394747	0.01031518963436571	0.06543711554758147	-0.255194654905869	-0.0043157977160777	-0.05287221081547284	0.004489273094733503	-0.1612963234806842	-0.1612963234806798	0.002338940018574688	-2.045429858334395e-05	-0.02145496800825033	-0.01660911400517535	-0.3184952308367006	0.01914099827323708	0.05102175898686209	-0.4661555108330361	-0.02429354364848894	-0.01584367733178036	0.3501372067409631	-0.04042502616329675	-60.21920975272443	-20.14901595726646	6.745883053526105	7.451306916786667	-763.7407079893386	70.68203073888181	1.160378819009167	0.1809926083730063	1.679177249834322	-5.067173721892293	-0.08234369767338642	-1.534153984413553	0.3239433316037245	-4.816492298402109	-4.816492298401942	0.07240470716539665	-0.002187710191121814	-1.139817438609446	-0.6364798438921038	-1.680125580140326e-09	-4.513976537737957e-09	2.500682784416773e-09	-1.360714283762125e-08	6.973698735349166e-09	-1.569849816987779e-08	-1.559000039302075e-08
